<svg width="16" height="16" viewBox="0 0 16 16" fill="none" xmlns="http://www.w3.org/2000/svg">
<path d="M14.6316 6.11937C14.5456 5.86737 14.3183 5.68937 14.053 5.66871L10.2523 5.36671L8.60765 1.72604C8.50031 1.48671 8.26231 1.33337 8.00031 1.33337C7.73831 1.33337 7.50031 1.48671 7.39298 1.72537L5.74831 5.36671L1.94764 5.66871C1.68698 5.68937 1.46231 5.86071 1.37364 6.10671C1.28498 6.35271 1.34764 6.62804 1.53498 6.81071L4.34364 9.54871L3.35031 13.85C3.28898 14.116 3.39631 14.3927 3.62098 14.548C3.73565 14.6267 3.86764 14.6667 4.00031 14.6667C4.12898 14.6667 4.25831 14.6294 4.37031 14.5547L8.00031 12.1347L11.6303 14.5547C11.8623 14.7094 12.167 14.7034 12.3936 14.5387C12.619 14.374 12.7183 14.0854 12.6416 13.8174L11.4223 9.55071L14.4463 6.82937C14.6443 6.65071 14.717 6.37204 14.6316 6.11937Z" fill="#FFBA08"/>
</svg>
