<svg width="16" height="16" viewBox="0 0 16 16" fill="none" xmlns="http://www.w3.org/2000/svg">
<path d="M4.34448 9.54871L3.35115 13.85C3.28981 14.116 3.39648 14.3927 3.62181 14.548C3.73581 14.6267 3.86781 14.6667 4.00048 14.6667C4.12915 14.6667 4.25848 14.6294 4.37048 14.5547L8.00048 12.1347L11.6305 14.5547C11.8625 14.7094 12.1671 14.7034 12.3938 14.5387C12.6191 14.374 12.7185 14.0854 12.6418 13.8174L11.4225 9.55071L14.4465 6.82937C14.6445 6.65071 14.7171 6.37204 14.6318 6.12004C14.5458 5.86804 14.3185 5.69071 14.0531 5.66937L10.2525 5.36671L8.60781 1.72604C8.50048 1.48671 8.26248 1.33337 8.00048 1.33337C7.73848 1.33337 7.50048 1.48671 7.39315 1.72604L5.74848 5.36671L1.94781 5.66871C1.68648 5.68937 1.46181 5.86071 1.37381 6.10671C1.28448 6.35271 1.34848 6.62804 1.53515 6.81071L4.34448 9.54871ZM6.24648 6.66471C6.48848 6.64537 6.70181 6.49604 6.80115 6.27404L8.00048 3.62004L9.19981 6.27404C9.29915 6.49604 9.51248 6.64537 9.75448 6.66471L12.4025 6.87471L10.2218 8.83737C10.0325 9.00804 9.95715 9.27071 10.0265 9.51604L10.8618 12.4394L8.37115 10.7787C8.14715 10.6287 7.85581 10.6287 7.63181 10.7787L5.02915 12.514L5.72915 9.48337C5.78115 9.25671 5.71181 9.01871 5.54515 8.85671L3.51981 6.88204L6.24648 6.66471Z" fill="#B4B7C9"/>
</svg>
